<svg data-v-423bf9ae="" xmlns="http://www.w3.org/2000/svg" viewBox="0 0 601 90" class="iconLeftSlogan"><!----><!----><!----><g data-v-423bf9ae="" id="a0c4af42-be8b-43f8-becc-1c8be722df00" fill="white" transform="matrix(5.410279456668789,0,0,5.410279456668789,108.8638464321636,-16.176735388617544)"><path d="M7.84 4.38L7.84 4.38L7.84 4.38Q8.05 4.66 8.14 4.95L8.14 4.95L8.14 4.95Q8.22 5.24 8.36 6.41L8.36 6.41L8.36 6.41Q8.50 7.58 8.65 9.21L8.65 9.21L8.65 9.21Q8.80 10.85 8.90 11.74L8.90 11.74L8.90 11.74Q9.00 12.64 9.20 13.79L9.20 13.79L9.20 13.79Q8.71 13.95 8.02 13.95L8.02 13.95L8.02 13.95Q7.32 13.95 7.04 13.79L7.04 13.79L7.04 13.79Q6.75 12.97 6.61 10.54L6.61 10.54L3.82 10.41L3.82 10.41Q3.19 13.83 1.61 14.03L1.61 14.03L1.61 14.03Q1.54 14.03 1.48 14.03L1.48 14.03L1.48 14.03Q1.00 14.03 0.61 13.74L0.61 13.74L0.61 13.74Q0.21 13.45 0.21 13.04L0.21 13.04L0.21 13.04Q0.78 12.66 1.26 11.98L1.26 11.98L1.26 11.98Q1.74 11.29 2.06 10.51L2.06 10.51L2.06 10.51Q2.38 9.73 2.61 8.85L2.61 8.85L2.61 8.85Q3.04 7.21 3.04 5.79L3.04 5.79L3.04 5.79Q3.04 5.30 2.92 5.07L2.92 5.07L2.92 5.07Q2.80 4.84 2.43 4.79L2.43 4.79L2.43 4.79Q2.32 4.65 2.32 4.30L2.32 4.30L2.32 4.30Q2.32 3.95 2.35 3.86L2.35 3.86L2.35 3.86Q4.26 3.96 7.31 4.00L7.31 4.00L7.31 4.00Q7.62 4.09 7.84 4.38ZM6.54 9.50L6.54 9.50L6.54 9.50Q6.50 8.78 6.46 7.68L6.46 7.68L6.46 7.68Q6.42 6.58 6.41 6.31L6.41 6.31L6.41 6.31Q6.39 6.05 6.36 5.81L6.36 5.81L6.36 5.81Q6.34 5.58 6.31 5.48L6.31 5.48L6.31 5.48Q6.28 5.37 6.22 5.29L6.22 5.29L6.22 5.29Q6.14 5.17 5.81 5.13L5.81 5.13L5.81 5.13Q5.48 5.09 4.27 5.09L4.27 5.09L4.27 5.09Q4.27 5.99 4.17 7.31L4.17 7.31L4.17 7.31Q4.07 8.63 3.98 9.38L3.98 9.38L4.24 9.38L4.24 9.38Q5.41 9.38 6.54 9.50ZM11.03 5.08L11.03 5.08L11.03 5.08Q10.91 4.42 10.16 4.33L10.16 4.33L10.16 4.33Q10.11 3.99 10.11 3.95L10.11 3.95L10.11 3.95Q10.11 3.90 10.12 3.85L10.12 3.85L10.12 3.85Q11.41 3.34 12.74 3.34L12.74 3.34L12.74 3.34Q12.80 3.34 12.87 3.34L12.87 3.34L12.87 3.34Q13.01 3.53 13.06 4.20L13.06 4.20L13.06 4.20Q13.10 4.87 13.10 7.33L13.10 7.33L13.10 7.33Q13.10 9.79 13.03 13.80L13.03 13.80L13.03 13.80Q12.58 13.93 11.95 13.93L11.95 13.93L11.95 13.93Q11.32 13.93 10.97 13.79L10.97 13.79L10.97 13.79Q11.09 12.87 11.09 10.29L11.09 10.29L11.09 10.29Q11.09 7.72 11.03 5.08ZM15.57 3.33L15.57 3.33L15.57 3.33Q15.97 2.99 16.44 2.99L16.44 2.99L16.44 2.99Q16.91 2.99 17.22 3.28L17.22 3.28L17.22 3.28Q17.53 3.57 17.53 4.09L17.53 4.09L17.53 4.09Q17.53 4.62 17.13 4.98L17.13 4.98L17.13 4.98Q16.73 5.34 16.23 5.34L16.23 5.34L16.23 5.34Q15.72 5.34 15.43 5.02L15.43 5.02L15.43 5.02Q15.13 4.71 15.13 4.22L15.13 4.22L15.13 4.22Q15.13 3.73 15.57 3.33ZM15.38 8.33L15.38 8.33L15.38 8.33Q15.38 7.81 15.02 7.71L15.02 7.71L15.02 7.71Q14.79 7.64 14.36 7.60L14.36 7.60L14.36 7.60Q14.31 7.40 14.31 7.29L14.31 7.29L14.31 7.29Q14.31 7.18 14.32 7.12L14.32 7.12L14.32 7.12Q15.31 6.57 16.79 6.57L16.79 6.57L16.79 6.57Q17.03 6.57 17.14 6.58L17.14 6.58L17.14 6.58Q17.34 6.88 17.41 7.75L17.41 7.75L17.41 7.75Q17.47 8.15 17.47 8.95L17.47 8.95L17.47 8.95Q17.47 9.75 17.41 13.82L17.41 13.82L17.41 13.82Q16.65 13.95 16.15 13.95L16.15 13.95L16.15 13.95Q15.65 13.95 15.30 13.82L15.30 13.82L15.30 13.82Q15.42 12.17 15.42 10.87L15.42 10.87L15.42 10.87Q15.42 9.56 15.38 8.33ZM21.53 8.27L21.53 8.27L21.53 10.03L21.53 10.03Q21.53 12.02 21.55 13.16L21.55 13.16L21.55 13.16Q21.89 13.21 22.37 13.21L22.37 13.21L22.37 13.21Q23.26 13.21 23.97 12.48L23.97 12.48L23.97 12.48Q24.74 11.66 24.74 10.04L24.74 10.04L24.74 10.04Q24.74 7.59 23.28 7.59L23.28 7.59L23.28 7.59Q22.89 7.59 22.49 7.75L22.49 7.75L22.49 7.75Q22.09 7.92 21.53 8.27ZM21.57 4.40L21.57 4.40L21.57 4.63L21.57 4.63Q21.57 4.82 21.57 5.19L21.57 5.19L21.57 5.19Q21.56 5.56 21.55 6.15L21.55 6.15L21.55 6.15Q21.55 6.75 21.54 7.28L21.54 7.28L21.54 7.28Q22.53 6.52 23.69 6.52L23.69 6.52L23.69 6.52Q25.27 6.52 26.05 7.39L26.05 7.39L26.05 7.39Q26.83 8.26 26.83 9.86L26.83 9.86L26.83 9.86Q26.83 11.35 26.15 12.27L26.15 12.27L26.15 12.27Q24.83 14.08 22.37 14.08L22.37 14.08L22.37 14.08Q20.64 14.08 19.47 13.73L19.47 13.73L19.47 13.73Q19.58 11.92 19.58 9.09L19.58 9.09L19.58 9.09Q19.58 6.26 19.54 4.97L19.54 4.97L19.54 4.97Q19.52 4.63 19.28 4.43L19.28 4.43L19.28 4.43Q19.05 4.23 18.68 4.20L18.68 4.20L18.68 4.20Q18.63 3.86 18.63 3.82L18.63 3.82L18.63 3.82Q18.63 3.77 18.64 3.72L18.64 3.72L18.64 3.72Q19.93 3.22 21.23 3.22L21.23 3.22L21.23 3.22Q21.29 3.22 21.35 3.22L21.35 3.22L21.35 3.22Q21.51 3.42 21.57 4.40ZM34.77 9.94L34.77 9.94L34.73 12.24L34.73 12.24Q34.73 12.27 34.73 12.30L34.73 12.30L34.73 12.30Q34.73 12.68 35.08 12.68L35.08 12.68L35.08 12.68Q35.36 12.68 35.66 12.50L35.66 12.50L35.66 12.50Q35.76 12.58 35.84 12.73L35.84 12.73L35.84 12.73Q35.93 12.88 35.94 12.96L35.94 12.96L35.94 12.96Q35.10 14.04 34.18 14.04L34.18 14.04L34.18 14.04Q33.27 14.04 32.91 13.15L32.91 13.15L32.91 13.15Q32.28 13.58 31.63 13.81L31.63 13.81L31.63 13.81Q30.97 14.04 30.51 14.04L30.51 14.04L30.51 14.04Q30.04 14.04 29.64 13.94L29.64 13.94L29.64 13.94Q29.24 13.84 28.90 13.61L28.90 13.61L28.90 13.61Q28.16 13.13 28.16 12.03L28.16 12.03L28.16 12.03Q28.16 11.44 28.48 11.00L28.48 11.00L28.48 11.00Q28.81 10.56 29.37 10.31L29.37 10.31L29.37 10.31Q30.44 9.82 31.93 9.78L31.93 9.78L32.72 9.75L32.72 9.75Q32.77 9.20 32.77 8.88L32.77 8.88L32.77 8.88Q32.77 8.16 32.49 7.79L32.49 7.79L32.49 7.79Q32.22 7.42 31.47 7.42L31.47 7.42L31.47 7.42Q31.01 7.42 30.77 7.73L30.77 7.73L30.77 7.73Q30.52 8.05 30.52 8.66L30.52 8.66L30.52 8.66Q30.52 8.74 30.28 8.86L30.28 8.86L30.28 8.86Q29.89 9.04 29.51 9.04L29.51 9.04L29.51 9.04Q29.12 9.04 28.89 8.83L28.89 8.83L28.89 8.83Q28.66 8.61 28.66 8.21L28.66 8.21L28.66 8.21Q28.66 7.81 28.95 7.46L28.95 7.46L28.95 7.46Q29.24 7.12 29.72 6.92L29.72 6.92L29.72 6.92Q30.67 6.55 31.88 6.55L31.88 6.55L31.88 6.55Q33.15 6.55 33.74 6.95L33.74 6.95L33.74 6.95Q34.28 7.31 34.50 7.97L34.50 7.97L34.50 7.97Q34.77 8.74 34.77 9.94ZM32.72 12.43L32.72 12.43L32.72 12.43Q32.63 11.93 32.63 11.56L32.63 11.56L32.63 11.56Q32.63 11.20 32.66 10.54L32.66 10.54L31.71 10.58L31.71 10.58Q30.97 10.58 30.58 10.94L30.58 10.94L30.58 10.94Q30.18 11.29 30.18 11.83L30.18 11.83L30.18 11.83Q30.18 12.36 30.41 12.59L30.41 12.59L30.41 12.59Q30.65 12.82 31.35 12.82L31.35 12.82L31.35 12.82Q32.06 12.82 32.72 12.43ZM41.04 12.43L41.04 12.43L41.04 12.43Q41.29 12.65 41.32 12.89L41.32 12.89L41.32 12.89Q40.42 14.04 39.24 14.04L39.24 14.04L39.24 14.04Q38.47 14.04 38.14 13.43L38.14 13.43L38.14 13.43Q37.87 12.89 37.81 11.57L37.81 11.57L37.81 11.57Q37.75 9.52 37.75 7.75L37.75 7.75L37.75 7.75Q37.06 7.72 36.90 7.68L36.90 7.68L36.90 7.68Q36.87 7.63 36.87 7.28L36.87 7.28L36.87 7.28Q36.87 6.93 36.90 6.90L36.90 6.90L37.77 6.82L37.77 6.82Q37.77 6.67 37.81 5.44L37.81 5.44L37.81 5.44Q38.15 5.09 38.81 4.90L38.81 4.90L38.81 4.90Q39.47 4.72 39.98 4.72L39.98 4.72L39.98 4.72Q39.89 5.58 39.83 6.82L39.83 6.82L39.83 6.82Q40.05 6.82 41.19 6.90L41.19 6.90L41.19 6.90Q41.22 7.01 41.22 7.34L41.22 7.34L41.22 7.34Q41.22 7.67 41.19 7.74L41.19 7.74L41.19 7.74Q40.56 7.82 39.79 7.84L39.79 7.84L39.79 7.84Q39.76 8.65 39.76 9.90L39.76 9.90L39.76 9.90Q39.76 11.14 39.81 12.24L39.81 12.24L39.81 12.24Q39.83 12.66 40.24 12.66L40.24 12.66L40.24 12.66Q40.65 12.66 41.04 12.43ZM49.06 9.94L49.06 9.94L49.02 12.24L49.02 12.24Q49.02 12.27 49.02 12.30L49.02 12.30L49.02 12.30Q49.02 12.68 49.38 12.68L49.38 12.68L49.38 12.68Q49.65 12.68 49.96 12.50L49.96 12.50L49.96 12.50Q50.05 12.58 50.14 12.73L50.14 12.73L50.14 12.73Q50.22 12.88 50.24 12.96L50.24 12.96L50.24 12.96Q49.39 14.04 48.48 14.04L48.48 14.04L48.48 14.04Q47.56 14.04 47.20 13.15L47.20 13.15L47.20 13.15Q46.57 13.58 45.92 13.81L45.92 13.81L45.92 13.81Q45.27 14.04 44.80 14.04L44.80 14.04L44.80 14.04Q44.33 14.04 43.93 13.94L43.93 13.94L43.93 13.94Q43.53 13.84 43.19 13.61L43.19 13.61L43.19 13.61Q42.45 13.13 42.45 12.03L42.45 12.03L42.45 12.03Q42.45 11.44 42.78 11.00L42.78 11.00L42.78 11.00Q43.10 10.56 43.66 10.31L43.66 10.31L43.66 10.31Q44.73 9.82 46.22 9.78L46.22 9.78L47.02 9.75L47.02 9.75Q47.07 9.20 47.07 8.88L47.07 8.88L47.07 8.88Q47.07 8.16 46.79 7.79L46.79 7.79L46.79 7.79Q46.51 7.42 45.76 7.42L45.76 7.42L45.76 7.42Q45.31 7.42 45.06 7.73L45.06 7.73L45.06 7.73Q44.81 8.05 44.81 8.66L44.81 8.66L44.81 8.66Q44.81 8.74 44.58 8.86L44.58 8.86L44.58 8.86Q44.19 9.04 43.80 9.04L43.80 9.04L43.80 9.04Q43.42 9.04 43.19 8.83L43.19 8.83L43.19 8.83Q42.96 8.61 42.96 8.21L42.96 8.21L42.96 8.21Q42.96 7.81 43.24 7.46L43.24 7.46L43.24 7.46Q43.53 7.12 44.01 6.92L44.01 6.92L44.01 6.92Q44.96 6.55 46.18 6.55L46.18 6.55L46.18 6.55Q47.45 6.55 48.04 6.95L48.04 6.95L48.04 6.95Q48.57 7.31 48.79 7.97L48.79 7.97L48.79 7.97Q49.06 8.74 49.06 9.94ZM47.02 12.43L47.02 12.43L47.02 12.43Q46.93 11.93 46.93 11.56L46.93 11.56L46.93 11.56Q46.93 11.20 46.95 10.54L46.95 10.54L46.00 10.58L46.00 10.58Q45.27 10.58 44.87 10.94L44.87 10.94L44.87 10.94Q44.47 11.29 44.47 11.83L44.47 11.83L44.47 11.83Q44.47 12.36 44.71 12.59L44.71 12.59L44.71 12.59Q44.94 12.82 45.65 12.82L45.65 12.82L45.65 12.82Q46.35 12.82 47.02 12.43ZM63.72 12.63L63.72 12.63L63.72 12.63Q62.36 14.04 60.25 14.04L60.25 14.04L60.25 14.04Q58.26 14.04 56.98 12.83L56.98 12.83L56.98 12.83Q56.35 12.22 55.99 11.23L55.99 11.23L55.99 11.23Q55.63 10.25 55.63 8.84L55.63 8.84L55.63 8.84Q55.63 7.42 56.29 6.23L56.29 6.23L56.29 6.23Q56.96 5.03 58.16 4.38L58.16 4.38L58.16 4.38Q59.36 3.72 60.83 3.72L60.83 3.72L60.83 3.72Q62.30 3.72 63.50 4.28L63.50 4.28L63.50 4.28Q63.62 4.43 63.62 4.66L63.62 4.66L63.62 4.66Q63.62 4.89 63.62 4.96L63.62 4.96L63.53 6.47L63.53 6.47Q63.15 6.72 62.80 6.72L62.80 6.72L62.80 6.72Q62.45 6.72 62.24 6.61L62.24 6.61L62.24 6.61Q62.04 6.51 61.94 6.32L61.94 6.32L61.94 6.32Q61.78 5.99 61.78 5.66L61.78 5.66L61.78 5.66Q61.78 5.33 61.79 5.07L61.79 5.07L61.79 5.07Q61.41 4.79 60.77 4.79L60.77 4.79L60.77 4.79Q60.14 4.79 59.76 4.91L59.76 4.91L59.76 4.91Q59.37 5.04 59.03 5.33L59.03 5.33L59.03 5.33Q58.69 5.61 58.45 6.04L58.45 6.04L58.45 6.04Q57.93 6.98 57.93 8.59L57.93 8.59L57.93 8.59Q57.93 10.63 58.82 11.72L58.82 11.72L58.82 11.72Q59.71 12.81 61.13 12.81L61.13 12.81L61.13 12.81Q62.17 12.81 63.18 11.94L63.18 11.94L63.18 11.94Q63.57 12.13 63.72 12.63ZM73.06 10.08L73.06 10.08L73.06 10.08Q73.06 10.98 72.74 11.76L72.74 11.76L72.74 11.76Q72.42 12.55 71.83 13.05L71.83 13.05L71.83 13.05Q70.65 14.05 68.71 14.05L68.71 14.05L68.71 14.05Q67.74 14.05 66.92 13.60L66.92 13.60L66.92 13.60Q66.10 13.14 65.61 12.31L65.61 12.31L65.61 12.31Q65.13 11.49 65.13 10.35L65.13 10.35L65.13 10.35Q65.13 9.20 65.71 8.29L65.71 8.29L65.71 8.29Q66.87 6.48 69.59 6.48L69.59 6.48L69.59 6.48Q70.96 6.48 71.99 7.42L71.99 7.42L71.99 7.42Q73.06 8.39 73.06 10.08ZM67.14 10.28L67.14 10.28L67.14 10.28Q67.14 11.45 67.82 12.33L67.82 12.33L67.82 12.33Q68.50 13.20 69.41 13.20L69.41 13.20L69.41 13.20Q71.09 13.20 71.09 10.46L71.09 10.46L71.09 10.46Q71.09 9.10 70.46 8.25L70.46 8.25L70.46 8.25Q69.84 7.40 68.88 7.40L68.88 7.40L68.88 7.40Q68.39 7.40 68.04 7.65L68.04 7.65L68.04 7.65Q67.68 7.90 67.50 8.31L67.50 8.31L67.50 8.31Q67.14 9.11 67.14 10.28ZM81.76 4.59L81.76 4.59L81.70 8.80L81.70 8.80Q81.70 10.26 81.74 12.35L81.74 12.35L81.74 12.35Q81.74 12.80 82.11 12.84L82.11 12.84L82.11 12.84Q82.20 12.84 82.37 12.84L82.37 12.84L82.37 12.84Q82.54 12.84 82.63 12.85L82.63 12.85L82.63 12.85Q82.71 12.98 82.71 13.13L82.71 13.13L82.71 13.13Q82.71 13.27 82.69 13.37L82.69 13.37L82.69 13.37Q81.50 14.04 80.68 14.04L80.68 14.04L80.68 14.04Q80.12 13.95 79.78 13.16L79.78 13.16L79.78 13.16Q79.29 13.62 78.82 13.83L78.82 13.83L78.82 13.83Q78.35 14.04 77.79 14.04L77.79 14.04L77.79 14.04Q77.24 14.04 76.78 13.93L76.78 13.93L76.78 13.93Q76.33 13.82 75.89 13.54L75.89 13.54L75.89 13.54Q75.44 13.27 75.11 12.86L75.11 12.86L75.11 12.86Q74.38 11.94 74.38 10.37L74.38 10.37L74.38 10.37Q74.38 9.46 74.72 8.73L74.72 8.73L74.72 8.73Q75.06 8.00 75.63 7.54L75.63 7.54L75.63 7.54Q76.81 6.60 78.46 6.60L78.46 6.60L78.46 6.60Q78.93 6.60 79.76 6.73L79.76 6.73L79.72 4.93L79.72 4.93Q79.70 4.59 79.46 4.39L79.46 4.39L79.46 4.39Q79.23 4.19 78.87 4.16L78.87 4.16L78.87 4.16Q78.82 3.82 78.82 3.78L78.82 3.78L78.82 3.78Q78.82 3.73 78.83 3.68L78.83 3.68L78.83 3.68Q80.12 3.18 81.40 3.18L81.40 3.18L81.40 3.18Q81.46 3.18 81.53 3.18L81.53 3.18L81.53 3.18Q81.62 3.31 81.69 3.72L81.69 3.72L81.69 3.72Q81.76 4.13 81.76 4.59ZM78.80 7.60L78.80 7.60L78.80 7.60Q77.79 7.60 77.14 8.24L77.14 8.24L77.14 8.24Q76.49 8.89 76.49 10.19L76.49 10.19L76.49 10.19Q76.49 11.09 76.70 11.65L76.70 11.65L76.70 11.65Q76.91 12.22 77.16 12.48L77.16 12.48L77.16 12.48Q77.66 12.99 78.21 12.99L78.21 12.99L78.21 12.99Q78.76 12.99 79.04 12.82L79.04 12.82L79.04 12.82Q79.33 12.66 79.76 12.17L79.76 12.17L79.76 12.17Q79.81 11.27 79.81 9.98L79.81 9.98L79.81 9.98Q79.81 8.68 79.79 7.68L79.79 7.68L79.79 7.68Q79.28 7.60 78.80 7.60ZM85.98 10.85L85.98 10.85Q86.18 11.86 86.85 12.48L86.85 12.48L86.85 12.48Q87.52 13.10 88.42 13.10L88.42 13.10L88.42 13.10Q89.31 13.10 90.22 12.33L90.22 12.33L90.22 12.33Q90.56 12.56 90.64 12.87L90.64 12.87L90.64 12.87Q90.01 13.60 88.78 13.91L88.78 13.91L88.78 13.91Q88.28 14.04 87.63 14.04L87.63 14.04L87.63 14.04Q86.97 14.04 86.28 13.81L86.28 13.81L86.28 13.81Q85.58 13.57 85.03 13.12L85.03 13.12L85.03 13.12Q84.48 12.67 84.16 11.93L84.16 11.93L84.16 11.93Q83.84 11.20 83.84 10.30L83.84 10.30L83.84 10.30Q83.84 9.41 84.16 8.68L84.16 8.68L84.16 8.68Q84.49 7.95 85.03 7.49L85.03 7.49L85.03 7.49Q86.16 6.51 87.62 6.51L87.62 6.51L87.62 6.51Q88.89 6.51 89.83 7.20L89.83 7.20L89.83 7.20Q90.28 7.54 90.55 8.08L90.55 8.08L90.55 8.08Q90.82 8.63 90.82 9.31L90.82 9.31L90.82 9.31Q90.82 10.48 90.05 10.54L90.05 10.54L85.98 10.85ZM88.98 9.11L88.98 9.11Q88.98 8.29 88.53 7.83L88.53 7.83L88.53 7.83Q88.08 7.38 87.35 7.38L87.35 7.38L87.35 7.38Q86.62 7.38 86.24 8.06L86.24 8.06L86.24 8.06Q85.87 8.75 85.87 9.97L85.87 9.97L85.87 9.97Q87.57 9.78 88.94 9.58L88.94 9.58L88.94 9.58Q88.98 9.33 88.98 9.11L88.98 9.11Z"></path></g><!----><g data-v-423bf9ae="" id="b1cad96c-ce46-4b16-826d-910712dd2edd" transform="matrix(1.5,0,0,1.5,-3,-3)" stroke="none" fill="white"><path d="M26.279 50H62V38H36.821l.432-1.312c.419-1.273.652-2.597.718-3.944A8.347 8.347 0 0 1 33.56 34 5.566 5.566 0 0 1 28 28.44c0-1.193-.593-2.3-1.585-2.962l-1.939-1.293A5.547 5.547 0 0 1 22 19.56c0-.895.227-1.762.636-2.541-1.787.043-3.495.4-5.076 1.018l1.499 2.248c.616.924.941 2 .941 3.109V25c0 1.103.897 2 2 2 2.206 0 4 1.794 4 4s-1.794 4-4 4h-5.308a4.953 4.953 0 0 1-4.621-3.129A2.96 2.96 0 0 0 9.308 30c-.383 0-.763-.047-1.138-.133C8.07 30.565 8 31.274 8 32c0 2.565.649 4.981 1.789 7.095a9.53 9.53 0 0 1 2.154-1.302A9.768 9.768 0 0 1 15.808 37h3.956a6.2 6.2 0 0 1 5.578 3.447A6.28 6.28 0 0 1 26 43.236v3.452c.57-.116 1.134-.253 1.688-.435l.625 1.9A16.99 16.99 0 0 1 23 49c-9.374 0-17-7.626-17-17s7.626-17 17-17 17 7.626 17 17a17.01 17.01 0 0 1-.474 4H44v-6.219l-2.207-.552-.115-.635a18.77 18.77 0 0 0-3.059-7.398l-.367-.531 1.167-1.945-3.139-3.139-1.945 1.167-.53-.368a18.91 18.91 0 0 0-1.283-.792L36.515 10H53V8h-2V2h-2v6h-2V4h-2v4h-2V2h-2v6h-2V6h-2v2h-1.515l-4.763 6.668a18.893 18.893 0 0 0-4.316-1.346l-.635-.115L25.22 11h-4.44l-.552 2.207-.635.115a18.763 18.763 0 0 0-7.398 3.059l-.53.368-1.945-1.167-3.139 3.138 1.167 1.945-.367.531a18.784 18.784 0 0 0-3.059 7.398l-.115.635L2 29.781v4.438l2.207.552.115.635a18.77 18.77 0 0 0 3.059 7.398l.367.531-1.167 1.945 3.139 3.139 1.945-1.167.53.368a18.79 18.79 0 0 0 7.398 3.059l.635.115L20.78 53h1.499l3 9H45v-2h-2v-4h-2v4h-2v-2h-2v2h-2v-6h-2v6h-2v-4h-2v4h-2.279l-2.334-7h.892l1-3zM32 48h-2v-8h2v8zm26-8h2v8h-2v-8zm-4 0h2v8h-2v-8zm-8 2c0-1.103.897-2 2-2h2c1.103 0 2 .897 2 2v4c0 1.103-.897 2-2 2h-2c-1.103 0-2-.897-2-2v-4zm-4-2h2v8h-2v-8zm-4 0c1.103 0 2 .897 2 2v4c0 1.103-.897 2-2 2h-2c-1.103 0-2-.897-2-2v-4c0-1.103.897-2 2-2h2zm-10-2v-2h7v2h-7z"></path><path d="M36 42h2v4h-2zM23 47c.335 0 .668-.017 1-.039v-3.725c0-.654-.154-1.309-.447-1.895A4.213 4.213 0 0 0 19.764 39h-3.956a7.764 7.764 0 0 0-3.076.631 7.539 7.539 0 0 0-1.864 1.154C13.596 44.543 18.011 47 23 47zM24.996 17.149C24.369 17.81 24 18.66 24 19.56c0 1.193.593 2.3 1.585 2.962l1.939 1.293A5.547 5.547 0 0 1 30 28.44 3.564 3.564 0 0 0 33.56 32a6.368 6.368 0 0 0 4.338-1.697c-.773-6.815-6.128-12.247-12.902-13.154zM48 42h2v4h-2zM17.395 21.395l-1.669-2.502a15.056 15.056 0 0 0-7.145 9.018c.241.058.484.089.727.089a4.953 4.953 0 0 1 4.621 3.129A2.96 2.96 0 0 0 16.692 33H22c1.103 0 2-.897 2-2s-.897-2-2-2c-2.206 0-4-1.794-4-4v-1.605c0-.714-.209-1.406-.605-2z"></path></g><!----><g data-v-423bf9ae="" id="8226411e-14b7-4ef8-b06b-455ea0a4d89e" fill="white" transform="matrix(0.9752817937322814,0,0,0.9752817937322814,109.67815704293002,54.45064566234353)"><path d="M2.24 6.15L2.24 9.75L4.35 9.75L4.35 9.75Q4.81 9.45 5.15 9.01L5.15 9.01L5.15 9.01Q5.48 8.57 5.48 8.02L5.48 8.02L5.48 8.02Q5.48 7.08 4.84 6.59L4.84 6.59L4.84 6.59Q4.20 6.11 3.07 6.11L3.07 6.11L3.07 6.11Q2.42 6.11 2.24 6.15L2.24 6.15ZM2.24 10.08L2.24 14.03L3.92 14.03L3.92 14.03Q4.55 14.03 5.01 13.85L5.01 13.85L5.01 13.85Q5.47 13.68 5.71 13.38L5.71 13.38L5.71 13.38Q5.95 13.08 6.06 12.74L6.06 12.74L6.06 12.74Q6.17 12.41 6.17 12.02L6.17 12.02L6.17 12.02Q6.17 11.68 6.06 11.36L6.06 11.36L6.06 11.36Q5.95 11.04 5.71 10.74L5.71 10.74L5.71 10.74Q5.48 10.45 5.03 10.26L5.03 10.26L5.03 10.26Q4.59 10.08 3.99 10.08L3.99 10.08L2.24 10.08ZM3.24 14.40L0.33 14.40L0.39 14.11L1.54 13.90L1.54 6.51L0.37 6.36L0.44 6.12L0.44 6.12Q0.56 6.10 1.00 6.03L1.00 6.03L1.00 6.03Q1.44 5.96 1.61 5.94L1.61 5.94L1.61 5.94Q1.78 5.91 2.14 5.87L2.14 5.87L2.14 5.87Q2.50 5.83 2.81 5.82L2.81 5.82L2.81 5.82Q3.12 5.80 3.47 5.80L3.47 5.80L3.47 5.80Q4.75 5.80 5.47 6.38L5.47 6.38L5.47 6.38Q6.18 6.96 6.18 7.79L6.18 7.79L6.18 7.79Q6.18 8.98 4.76 9.76L4.76 9.76L4.76 9.80L4.76 9.80Q5.76 9.86 6.33 10.46L6.33 10.46L6.33 10.46Q6.90 11.05 6.90 11.80L6.90 11.80L6.90 11.80Q6.90 12.22 6.79 12.58L6.79 12.58L6.79 12.58Q6.69 12.95 6.43 13.29L6.43 13.29L6.43 13.29Q6.17 13.63 5.76 13.87L5.76 13.87L5.76 13.87Q5.36 14.11 4.71 14.25L4.71 14.25L4.71 14.25Q4.07 14.40 3.24 14.40L3.24 14.40ZM15.82 6.33L14.58 6.16L14.61 5.89L17.71 5.89L17.68 6.16L16.53 6.32L16.53 11.01L16.53 11.01Q16.53 11.87 16.71 12.49L16.71 12.49L16.71 12.49Q16.89 13.10 17.24 13.45L17.24 13.45L17.24 13.45Q17.59 13.79 18.04 13.95L18.04 13.95L18.04 13.95Q18.48 14.11 19.07 14.11L19.07 14.11L19.07 14.11Q20.25 14.11 20.89 13.40L20.89 13.40L20.89 13.40Q21.53 12.68 21.53 11.33L21.53 11.33L21.53 6.33L20.26 6.16L20.30 5.89L23.20 5.89L23.15 6.16L22.01 6.32L21.99 11.05L21.99 11.05Q21.98 12.78 21.25 13.68L21.25 13.68L21.25 13.68Q20.51 14.58 18.85 14.58L18.85 14.58L18.85 14.58Q18.35 14.58 17.92 14.49L17.92 14.49L17.92 14.49Q17.50 14.40 17.10 14.16L17.10 14.16L17.10 14.16Q16.71 13.93 16.43 13.56L16.43 13.56L16.43 13.56Q16.15 13.19 15.99 12.60L15.99 12.60L15.99 12.60Q15.82 12.01 15.82 11.24L15.82 11.24L15.82 6.33ZM32.05 6.33L30.86 6.16L30.91 5.89L34.03 5.89L33.98 6.16L32.79 6.32L32.79 13.95L34.10 14.08L34.04 14.40L30.93 14.40L30.97 14.11L32.05 13.90L32.05 6.33ZM47.98 14.40L41.83 14.40L41.86 14.11L43.02 13.90L43.02 6.34L41.84 6.17L41.87 5.90L44.98 5.90L44.95 6.17L43.75 6.32L43.75 14.03L47.37 14.03L47.90 12.09L48.20 12.14L47.98 14.40ZM57.81 6.19L57.81 14.03L59.04 14.03L59.04 14.03Q60.85 14.03 61.94 12.95L61.94 12.95L61.94 12.95Q63.04 11.87 63.04 10.12L63.04 10.12L63.04 10.12Q63.04 8.20 61.99 7.18L61.99 7.18L61.99 7.18Q60.94 6.16 59.00 6.16L59.00 6.16L59.00 6.16Q58.00 6.16 57.81 6.19L57.81 6.19ZM58.86 14.40L55.91 14.40L55.97 14.11L57.12 13.90L57.12 6.51L55.95 6.36L56.01 6.12L56.01 6.12Q58.10 5.79 59.25 5.79L59.25 5.79L59.25 5.79Q60.22 5.79 60.99 6.03L60.99 6.03L60.99 6.03Q61.77 6.26 62.28 6.66L62.28 6.66L62.28 6.66Q62.79 7.05 63.14 7.59L63.14 7.59L63.14 7.59Q63.48 8.13 63.63 8.71L63.63 8.71L63.63 8.71Q63.78 9.29 63.78 9.92L63.78 9.92L63.78 9.92Q63.78 10.64 63.61 11.28L63.61 11.28L63.61 11.28Q63.44 11.93 63.05 12.50L63.05 12.50L63.05 12.50Q62.67 13.08 62.11 13.49L62.11 13.49L62.11 13.49Q61.54 13.91 60.71 14.15L60.71 14.15L60.71 14.15Q59.88 14.40 58.86 14.40L58.86 14.40ZM72.66 6.33L71.48 6.16L71.52 5.89L74.64 5.89L74.59 6.16L73.40 6.32L73.40 13.95L74.72 14.08L74.66 14.40L71.54 14.40L71.58 14.11L72.66 13.90L72.66 6.33ZM83.67 6.36L82.41 6.14L82.46 5.89L84.53 5.89L89.26 13.17L89.26 6.33L88.01 6.16L88.05 5.89L90.95 5.89L90.89 6.16L89.76 6.32L89.76 14.44L89.39 14.52L84.18 6.65L84.18 13.95L85.44 14.08L85.37 14.40L82.49 14.40L82.53 14.11L83.67 13.90L83.67 6.36ZM98.66 10.27L98.66 10.27L98.66 10.27Q98.66 9.64 98.83 9.00L98.83 9.00L98.83 9.00Q99.00 8.36 99.35 7.78L99.35 7.78L99.35 7.78Q99.70 7.21 100.17 6.75L100.17 6.75L100.17 6.75Q100.65 6.30 101.32 6.04L101.32 6.04L101.32 6.04Q101.99 5.77 102.74 5.77L102.74 5.77L102.74 5.77Q103.48 5.77 104.19 5.94L104.19 5.94L104.19 5.94Q104.89 6.11 105.36 6.47L105.36 6.47L105.16 8.64L104.85 8.61L104.64 6.99L104.64 6.99Q104.37 6.65 103.82 6.41L103.82 6.41L103.82 6.41Q103.28 6.17 102.52 6.17L102.52 6.17L102.52 6.17Q101.11 6.17 100.27 7.27L100.27 7.27L100.27 7.27Q99.44 8.37 99.44 10.07L99.44 10.07L99.44 10.07Q99.44 10.69 99.54 11.25L99.54 11.25L99.54 11.25Q99.65 11.81 99.91 12.34L99.91 12.34L99.91 12.34Q100.16 12.87 100.54 13.25L100.54 13.25L100.54 13.25Q100.92 13.63 101.51 13.86L101.51 13.86L101.51 13.86Q102.09 14.09 102.83 14.09L102.83 14.09L102.83 14.09Q103.89 14.09 104.60 13.59L104.60 13.59L104.62 11.03L102.97 10.86L103.01 10.60L106.29 10.60L106.24 10.86L105.33 11.01L105.33 13.86L105.33 13.86Q104.68 14.25 103.94 14.39L103.94 14.39L103.94 14.39Q103.20 14.53 102.12 14.53L102.12 14.53L102.12 14.53Q101.41 14.53 100.78 14.23L100.78 14.23L100.78 14.23Q100.15 13.93 99.68 13.39L99.68 13.39L99.68 13.39Q99.21 12.85 98.93 12.04L98.93 12.04L98.93 12.04Q98.66 11.23 98.66 10.27ZM125.77 6.15L125.77 9.75L127.89 9.75L127.89 9.75Q128.34 9.45 128.68 9.01L128.68 9.01L128.68 9.01Q129.01 8.57 129.01 8.02L129.01 8.02L129.01 8.02Q129.01 7.08 128.38 6.59L128.38 6.59L128.38 6.59Q127.74 6.11 126.60 6.11L126.60 6.11L126.60 6.11Q125.95 6.11 125.77 6.15L125.77 6.15ZM125.77 10.08L125.77 14.03L127.45 14.03L127.45 14.03Q128.08 14.03 128.54 13.85L128.54 13.85L128.54 13.85Q129.00 13.68 129.24 13.38L129.24 13.38L129.24 13.38Q129.49 13.08 129.60 12.74L129.60 12.74L129.60 12.74Q129.71 12.41 129.71 12.02L129.71 12.02L129.71 12.02Q129.71 11.68 129.60 11.36L129.60 11.36L129.60 11.36Q129.49 11.04 129.25 10.74L129.25 10.74L129.25 10.74Q129.01 10.45 128.56 10.26L128.56 10.26L128.56 10.26Q128.12 10.08 127.52 10.08L127.52 10.08L125.77 10.08ZM126.77 14.40L123.87 14.40L123.92 14.11L125.08 13.90L125.08 6.51L123.90 6.36L123.97 6.12L123.97 6.12Q124.09 6.10 124.53 6.03L124.53 6.03L124.53 6.03Q124.97 5.96 125.14 5.94L125.14 5.94L125.14 5.94Q125.32 5.91 125.67 5.87L125.67 5.87L125.67 5.87Q126.03 5.83 126.34 5.82L126.34 5.82L126.34 5.82Q126.65 5.80 127.00 5.80L127.00 5.80L127.00 5.80Q128.28 5.80 129.00 6.38L129.00 6.38L129.00 6.38Q129.71 6.96 129.71 7.79L129.71 7.79L129.71 7.79Q129.71 8.98 128.30 9.76L128.30 9.76L128.30 9.80L128.30 9.80Q129.29 9.86 129.86 10.46L129.86 10.46L129.86 10.46Q130.43 11.05 130.43 11.80L130.43 11.80L130.43 11.80Q130.43 12.22 130.33 12.58L130.33 12.58L130.33 12.58Q130.22 12.95 129.96 13.29L129.96 13.29L129.96 13.29Q129.70 13.63 129.29 13.87L129.29 13.87L129.29 13.87Q128.89 14.11 128.25 14.25L128.25 14.25L128.25 14.25Q127.60 14.40 126.77 14.40L126.77 14.40ZM144.31 14.40L138.15 14.40L138.19 14.11L139.34 13.90L139.34 6.34L138.17 6.17L138.20 5.90L141.31 5.90L141.28 6.17L140.08 6.32L140.08 14.03L143.70 14.03L144.22 12.09L144.53 12.14L144.31 14.40ZM153.02 9.75L153.02 9.75L153.02 9.75Q153.02 11.03 153.38 12.01L153.38 12.01L153.38 12.01Q153.75 13.00 154.46 13.57L154.46 13.57L154.46 13.57Q155.18 14.14 156.16 14.14L156.16 14.14L156.16 14.14Q156.73 14.14 157.23 13.92L157.23 13.92L157.23 13.92Q157.72 13.70 158.06 13.33L158.06 13.33L158.06 13.33Q158.41 12.96 158.65 12.49L158.65 12.49L158.65 12.49Q158.89 12.01 159.01 11.50L159.01 11.50L159.01 11.50Q159.13 10.99 159.13 10.48L159.13 10.48L159.13 10.48Q159.13 8.50 158.28 7.29L158.28 7.29L158.28 7.29Q157.42 6.07 155.98 6.07L155.98 6.07L155.98 6.07Q155.39 6.07 154.90 6.28L154.90 6.28L154.90 6.28Q154.41 6.49 154.07 6.85L154.07 6.85L154.07 6.85Q153.73 7.21 153.49 7.69L153.49 7.69L153.49 7.69Q153.25 8.16 153.14 8.69L153.14 8.69L153.14 8.69Q153.02 9.21 153.02 9.75ZM152.27 10.16L152.27 10.16L152.27 10.16Q152.27 8.16 153.37 6.92L153.37 6.92L153.37 6.92Q154.46 5.69 156.30 5.69L156.30 5.69L156.30 5.69Q157.44 5.69 158.26 6.27L158.26 6.27L158.26 6.27Q159.07 6.86 159.47 7.84L159.47 7.84L159.47 7.84Q159.87 8.83 159.87 10.11L159.87 10.11L159.87 10.11Q159.87 10.75 159.71 11.38L159.71 11.38L159.71 11.38Q159.56 12.00 159.24 12.58L159.24 12.58L159.24 12.58Q158.92 13.17 158.45 13.61L158.45 13.61L158.45 13.61Q157.99 14.05 157.32 14.32L157.32 14.32L157.32 14.32Q156.64 14.58 155.83 14.58L155.83 14.58L155.83 14.58Q154.78 14.58 153.96 13.98L153.96 13.98L153.96 13.98Q153.13 13.37 152.70 12.37L152.70 12.37L152.70 12.37Q152.27 11.37 152.27 10.16ZM167.62 10.25L167.62 10.25L167.62 10.25Q167.62 9.73 167.72 9.21L167.72 9.21L167.72 9.21Q167.83 8.68 168.03 8.17L168.03 8.17L168.03 8.17Q168.23 7.66 168.56 7.22L168.56 7.22L168.56 7.22Q168.89 6.77 169.30 6.44L169.30 6.44L169.30 6.44Q169.72 6.10 170.27 5.90L170.27 5.90L170.27 5.90Q170.83 5.71 171.47 5.71L171.47 5.71L171.47 5.71Q172.88 5.71 173.79 6.39L173.79 6.39L173.58 8.70L173.26 8.64L173.05 6.87L173.05 6.87Q172.46 6.09 171.14 6.09L171.14 6.09L171.14 6.09Q170.00 6.09 169.17 7.19L169.17 7.19L169.17 7.19Q168.34 8.30 168.34 10.00L168.34 10.00L168.34 10.00Q168.34 11.92 169.15 12.97L169.15 12.97L169.15 12.97Q169.95 14.03 171.42 14.03L171.42 14.03L171.42 14.03Q172.16 14.03 172.85 13.65L172.85 13.65L172.85 13.65Q173.54 13.28 174.01 12.74L174.01 12.74L174.17 12.99L174.17 12.99Q174.00 13.25 173.71 13.51L173.71 13.51L173.71 13.51Q173.42 13.77 173.03 14.02L173.03 14.02L173.03 14.02Q172.65 14.27 172.14 14.42L172.14 14.42L172.14 14.42Q171.64 14.57 171.11 14.57L171.11 14.57L171.11 14.57Q169.54 14.57 168.58 13.40L168.58 13.40L168.58 13.40Q167.62 12.22 167.62 10.25ZM184.13 10.27L184.12 10.17L184.12 10.17Q184.76 9.47 185.12 9.04L185.12 9.04L187.39 6.33L186.20 6.16L186.23 5.89L189.01 5.89L188.99 6.16L187.95 6.32L184.83 10.10L186.62 12.20L186.62 12.20Q187.41 13.13 187.92 13.54L187.92 13.54L187.92 13.54Q188.42 13.94 189 14.03L189 14.03L189.37 14.08L189.29 14.38L189.29 14.38Q189.29 14.38 189.16 14.42L189.16 14.42L189.16 14.42Q189.02 14.46 188.97 14.48L188.97 14.48L188.97 14.48Q188.92 14.50 188.85 14.52L188.85 14.52L188.85 14.52Q188.78 14.53 188.71 14.54L188.71 14.54L188.71 14.54Q188.64 14.55 188.56 14.55L188.56 14.55L188.56 14.55Q188.23 14.55 187.94 14.43L187.94 14.43L187.94 14.43Q187.64 14.31 187.33 14.03L187.33 14.03L187.33 14.03Q187.01 13.75 186.80 13.51L186.80 13.51L186.80 13.51Q186.58 13.28 186.20 12.82L186.20 12.82L184.13 10.27ZM183.01 6.33L181.83 6.16L181.86 5.89L184.93 5.89L184.91 6.16L183.75 6.32L183.75 13.95L185.02 14.08L184.95 14.40L181.90 14.40L181.94 14.11L183.01 13.90L183.01 6.33ZM197.09 13.60L197.09 13.60L197.29 11.66L197.62 11.71L197.81 13.21L197.81 13.21Q198.04 13.64 198.57 13.89L198.57 13.89L198.57 13.89Q199.10 14.14 199.70 14.14L199.70 14.14L199.70 14.14Q200.38 14.14 200.86 13.74L200.86 13.74L200.86 13.74Q201.34 13.33 201.34 12.61L201.34 12.61L201.34 12.61Q201.34 12.20 201.12 11.83L201.12 11.83L201.12 11.83Q200.91 11.46 200.56 11.18L200.56 11.18L200.56 11.18Q200.22 10.90 199.80 10.63L199.80 10.63L199.80 10.63Q199.38 10.36 198.96 10.07L198.96 10.07L198.96 10.07Q198.54 9.79 198.20 9.48L198.20 9.48L198.20 9.48Q197.85 9.17 197.64 8.75L197.64 8.75L197.64 8.75Q197.42 8.33 197.42 7.84L197.42 7.84L197.42 7.84Q197.42 6.88 198.12 6.29L198.12 6.29L198.12 6.29Q198.81 5.71 199.69 5.71L199.69 5.71L199.69 5.71Q200.28 5.71 200.82 5.90L200.82 5.90L200.82 5.90Q201.36 6.09 201.69 6.46L201.69 6.46L201.46 8.58L201.15 8.53L200.96 6.87L200.96 6.87Q200.78 6.54 200.36 6.32L200.36 6.32L200.36 6.32Q199.94 6.10 199.51 6.10L199.51 6.10L199.51 6.10Q198.92 6.10 198.51 6.48L198.51 6.48L198.51 6.48Q198.09 6.87 198.09 7.52L198.09 7.52L198.09 7.52Q198.09 7.96 198.31 8.35L198.31 8.35L198.31 8.35Q198.54 8.74 198.89 9.03L198.89 9.03L198.89 9.03Q199.24 9.32 199.66 9.61L199.66 9.61L199.66 9.61Q200.09 9.89 200.52 10.17L200.52 10.17L200.52 10.17Q200.94 10.45 201.29 10.75L201.29 10.75L201.29 10.75Q201.65 11.05 201.87 11.45L201.87 11.45L201.87 11.45Q202.09 11.85 202.09 12.29L202.09 12.29L202.09 12.29Q202.09 13.28 201.34 13.93L201.34 13.93L201.34 13.93Q200.59 14.57 199.34 14.57L199.34 14.57L199.34 14.57Q198.63 14.57 198.03 14.30L198.03 14.30L198.03 14.30Q197.43 14.03 197.09 13.60ZM220.50 9.75L220.50 9.75L220.50 9.75Q220.50 11.03 220.86 12.01L220.86 12.01L220.86 12.01Q221.22 13.00 221.94 13.57L221.94 13.57L221.94 13.57Q222.66 14.14 223.64 14.14L223.64 14.14L223.64 14.14Q224.21 14.14 224.70 13.92L224.70 13.92L224.70 13.92Q225.20 13.70 225.54 13.33L225.54 13.33L225.54 13.33Q225.89 12.96 226.13 12.49L226.13 12.49L226.13 12.49Q226.37 12.01 226.49 11.50L226.49 11.50L226.49 11.50Q226.60 10.99 226.60 10.48L226.60 10.48L226.60 10.48Q226.60 8.50 225.75 7.29L225.75 7.29L225.75 7.29Q224.90 6.07 223.45 6.07L223.45 6.07L223.45 6.07Q222.87 6.07 222.38 6.28L222.38 6.28L222.38 6.28Q221.89 6.49 221.55 6.85L221.55 6.85L221.55 6.85Q221.20 7.21 220.96 7.69L220.96 7.69L220.96 7.69Q220.73 8.16 220.61 8.69L220.61 8.69L220.61 8.69Q220.50 9.21 220.50 9.75ZM219.75 10.16L219.75 10.16L219.75 10.16Q219.75 8.16 220.85 6.92L220.85 6.92L220.85 6.92Q221.94 5.69 223.78 5.69L223.78 5.69L223.78 5.69Q224.92 5.69 225.73 6.27L225.73 6.27L225.73 6.27Q226.55 6.86 226.95 7.84L226.95 7.84L226.95 7.84Q227.34 8.83 227.34 10.11L227.34 10.11L227.34 10.11Q227.34 10.75 227.19 11.38L227.19 11.38L227.19 11.38Q227.04 12.00 226.72 12.58L226.72 12.58L226.72 12.58Q226.39 13.17 225.93 13.61L225.93 13.61L225.93 13.61Q225.47 14.05 224.79 14.32L224.79 14.32L224.79 14.32Q224.12 14.58 223.31 14.58L223.31 14.58L223.31 14.58Q222.26 14.58 221.43 13.98L221.43 13.98L221.43 13.98Q220.61 13.37 220.18 12.37L220.18 12.37L220.18 12.37Q219.75 11.37 219.75 10.16ZM236.28 6.36L235.07 6.18L235.12 5.89L241.31 5.89L241.08 8.09L240.75 8.04L240.60 6.24L236.98 6.24L236.98 10.07L239.26 10.07L239.52 9.11L239.91 9.06L239.70 11.72L239.32 11.77L239.20 10.43L236.98 10.43L236.98 13.92L238.66 14.03L238.58 14.40L235.09 14.40L235.12 14.11L236.28 13.90L236.28 6.36ZM258.99 8.09L258.92 5.89L265.99 5.89L265.75 8.16L265.41 8.12L265.29 6.24L262.75 6.24L262.75 13.90L263.96 14.08L263.89 14.40L260.79 14.40L260.83 14.11L262.02 13.90L262.02 6.24L259.59 6.24L259.35 8.15L258.99 8.09ZM274.92 6.36L273.70 6.18L273.75 5.89L279.94 5.89L279.73 8.07L279.41 8.03L279.28 6.24L275.63 6.24L275.63 9.89L277.92 9.89L278.17 8.94L278.54 8.89L278.32 11.55L277.97 11.61L277.86 10.26L275.63 10.26L275.63 14.03L279.47 14.03L279.98 12.19L280.26 12.26L280.05 14.40L273.72 14.40L273.76 14.11L274.92 13.90L274.92 6.36ZM288.00 10.25L288.00 10.25L288.00 10.25Q288.00 9.73 288.10 9.21L288.10 9.21L288.10 9.21Q288.21 8.68 288.41 8.17L288.41 8.17L288.41 8.17Q288.61 7.66 288.94 7.22L288.94 7.22L288.94 7.22Q289.27 6.77 289.68 6.44L289.68 6.44L289.68 6.44Q290.10 6.10 290.65 5.90L290.65 5.90L290.65 5.90Q291.21 5.71 291.85 5.71L291.85 5.71L291.85 5.71Q293.26 5.71 294.17 6.39L294.17 6.39L293.96 8.70L293.64 8.64L293.43 6.87L293.43 6.87Q292.84 6.09 291.53 6.09L291.53 6.09L291.53 6.09Q290.38 6.09 289.55 7.19L289.55 7.19L289.55 7.19Q288.72 8.30 288.72 10.00L288.72 10.00L288.72 10.00Q288.72 11.92 289.53 12.97L289.53 12.97L289.53 12.97Q290.33 14.03 291.81 14.03L291.81 14.03L291.81 14.03Q292.54 14.03 293.23 13.65L293.23 13.65L293.23 13.65Q293.92 13.28 294.39 12.74L294.39 12.74L294.55 12.99L294.55 12.99Q294.38 13.25 294.09 13.51L294.09 13.51L294.09 13.51Q293.80 13.77 293.42 14.02L293.42 14.02L293.42 14.02Q293.03 14.27 292.52 14.42L292.52 14.42L292.52 14.42Q292.02 14.57 291.49 14.57L291.49 14.57L291.49 14.57Q289.92 14.57 288.96 13.40L288.96 13.40L288.96 13.40Q288.00 12.22 288.00 10.25ZM303.45 6.33L302.22 6.16L302.24 5.89L305.35 5.89L305.32 6.16L304.17 6.32L304.17 9.95L309.07 9.95L309.07 6.33L307.82 6.16L307.86 5.89L310.97 5.89L310.92 6.16L309.78 6.32L309.78 13.95L311.03 14.08L310.98 14.40L307.88 14.40L307.94 14.11L309.07 13.90L309.07 10.36L304.17 10.36L304.17 13.95L305.44 14.08L305.36 14.40L302.27 14.40L302.31 14.11L303.45 13.90L303.45 6.33ZM319.98 6.36L318.72 6.14L318.77 5.89L320.84 5.89L325.57 13.17L325.57 6.33L324.32 6.16L324.36 5.89L327.26 5.89L327.20 6.16L326.07 6.32L326.07 14.44L325.70 14.52L320.49 6.65L320.49 13.95L321.75 14.08L321.68 14.40L318.80 14.40L318.84 14.11L319.98 13.90L319.98 6.36ZM335.72 9.75L335.72 9.75L335.72 9.75Q335.72 11.03 336.08 12.01L336.08 12.01L336.08 12.01Q336.44 13.00 337.16 13.57L337.16 13.57L337.16 13.57Q337.88 14.14 338.86 14.14L338.86 14.14L338.86 14.14Q339.43 14.14 339.92 13.92L339.92 13.92L339.92 13.92Q340.42 13.70 340.76 13.33L340.76 13.33L340.76 13.33Q341.11 12.96 341.35 12.49L341.35 12.49L341.35 12.49Q341.59 12.01 341.71 11.50L341.71 11.50L341.71 11.50Q341.82 10.99 341.82 10.48L341.82 10.48L341.82 10.48Q341.82 8.50 340.97 7.29L340.97 7.29L340.97 7.29Q340.12 6.07 338.67 6.07L338.67 6.07L338.67 6.07Q338.09 6.07 337.60 6.28L337.60 6.28L337.60 6.28Q337.11 6.49 336.77 6.85L336.77 6.85L336.77 6.85Q336.42 7.21 336.18 7.69L336.18 7.69L336.18 7.69Q335.95 8.16 335.83 8.69L335.83 8.69L335.83 8.69Q335.72 9.21 335.72 9.75ZM334.97 10.16L334.97 10.16L334.97 10.16Q334.97 8.16 336.06 6.92L336.06 6.92L336.06 6.92Q337.16 5.69 339.00 5.69L339.00 5.69L339.00 5.69Q340.14 5.69 340.95 6.27L340.95 6.27L340.95 6.27Q341.77 6.86 342.17 7.84L342.17 7.84L342.17 7.84Q342.56 8.83 342.56 10.11L342.56 10.11L342.56 10.11Q342.56 10.75 342.41 11.38L342.41 11.38L342.41 11.38Q342.26 12.00 341.94 12.58L341.94 12.58L341.94 12.58Q341.61 13.17 341.15 13.61L341.15 13.61L341.15 13.61Q340.69 14.05 340.01 14.32L340.01 14.32L340.01 14.32Q339.34 14.58 338.53 14.58L338.53 14.58L338.53 14.58Q337.48 14.58 336.65 13.98L336.65 13.98L336.65 13.98Q335.83 13.37 335.40 12.37L335.40 12.37L335.40 12.37Q334.97 11.37 334.97 10.16ZM356.45 14.40L350.30 14.40L350.33 14.11L351.49 13.90L351.49 6.34L350.31 6.17L350.34 5.90L353.45 5.90L353.42 6.17L352.22 6.32L352.22 14.03L355.84 14.03L356.37 12.09L356.67 12.14L356.45 14.40ZM365.17 9.75L365.17 9.75L365.17 9.75Q365.17 11.03 365.53 12.01L365.53 12.01L365.53 12.01Q365.89 13.00 366.61 13.57L366.61 13.57L366.61 13.57Q367.33 14.14 368.31 14.14L368.31 14.14L368.31 14.14Q368.88 14.14 369.37 13.92L369.37 13.92L369.37 13.92Q369.87 13.70 370.21 13.33L370.21 13.33L370.21 13.33Q370.56 12.96 370.80 12.49L370.80 12.49L370.80 12.49Q371.04 12.01 371.16 11.50L371.16 11.50L371.16 11.50Q371.27 10.99 371.27 10.48L371.27 10.48L371.27 10.48Q371.27 8.50 370.42 7.29L370.42 7.29L370.42 7.29Q369.57 6.07 368.12 6.07L368.12 6.07L368.12 6.07Q367.54 6.07 367.05 6.28L367.05 6.28L367.05 6.28Q366.56 6.49 366.21 6.85L366.21 6.85L366.21 6.85Q365.87 7.21 365.63 7.69L365.63 7.69L365.63 7.69Q365.39 8.16 365.28 8.69L365.28 8.69L365.28 8.69Q365.17 9.21 365.17 9.75ZM364.42 10.16L364.42 10.16L364.42 10.16Q364.42 8.16 365.51 6.92L365.51 6.92L365.51 6.92Q366.61 5.69 368.45 5.69L368.45 5.69L368.45 5.69Q369.58 5.69 370.40 6.27L370.40 6.27L370.40 6.27Q371.22 6.86 371.62 7.84L371.62 7.84L371.62 7.84Q372.01 8.83 372.01 10.11L372.01 10.11L372.01 10.11Q372.01 10.75 371.86 11.38L371.86 11.38L371.86 11.38Q371.71 12.00 371.39 12.58L371.39 12.58L371.39 12.58Q371.06 13.17 370.60 13.61L370.60 13.61L370.60 13.61Q370.14 14.05 369.46 14.32L369.46 14.32L369.46 14.32Q368.79 14.58 367.98 14.58L367.98 14.58L367.98 14.58Q366.93 14.58 366.10 13.98L366.10 13.98L366.10 13.98Q365.28 13.37 364.85 12.37L364.85 12.37L364.85 12.37Q364.42 11.37 364.42 10.16ZM379.76 10.27L379.76 10.27L379.76 10.27Q379.76 9.64 379.93 9.00L379.93 9.00L379.93 9.00Q380.11 8.36 380.45 7.78L380.45 7.78L380.45 7.78Q380.80 7.21 381.28 6.75L381.28 6.75L381.28 6.75Q381.76 6.30 382.43 6.04L382.43 6.04L382.43 6.04Q383.09 5.77 383.85 5.77L383.85 5.77L383.85 5.77Q384.59 5.77 385.29 5.94L385.29 5.94L385.29 5.94Q386.00 6.11 386.47 6.47L386.47 6.47L386.26 8.64L385.96 8.61L385.75 6.99L385.75 6.99Q385.48 6.65 384.93 6.41L384.93 6.41L384.93 6.41Q384.38 6.17 383.63 6.17L383.63 6.17L383.63 6.17Q382.22 6.17 381.38 7.27L381.38 7.27L381.38 7.27Q380.54 8.37 380.54 10.07L380.54 10.07L380.54 10.07Q380.54 10.69 380.65 11.25L380.65 11.25L380.65 11.25Q380.76 11.81 381.01 12.34L381.01 12.34L381.01 12.34Q381.27 12.87 381.65 13.25L381.65 13.25L381.65 13.25Q382.03 13.63 382.61 13.86L382.61 13.86L382.61 13.86Q383.20 14.09 383.93 14.09L383.93 14.09L383.93 14.09Q384.99 14.09 385.71 13.59L385.71 13.59L385.72 11.03L384.08 10.86L384.12 10.60L387.40 10.60L387.35 10.86L386.44 11.01L386.44 13.86L386.44 13.86Q385.79 14.25 385.05 14.39L385.05 14.39L385.05 14.39Q384.31 14.53 383.22 14.53L383.22 14.53L383.22 14.53Q382.52 14.53 381.89 14.23L381.89 14.23L381.89 14.23Q381.25 13.93 380.79 13.39L380.79 13.39L380.79 13.39Q380.32 12.85 380.04 12.04L380.04 12.04L380.04 12.04Q379.76 11.23 379.76 10.27ZM396.01 6.35L395.06 6.15L395.08 5.90L397.93 5.90L397.91 6.15L396.77 6.32L398.91 10.49L401.03 6.34L399.77 6.14L399.78 5.89L402.45 5.89L402.42 6.14L401.54 6.32L399.16 11.05L399.16 13.94L400.39 14.08L400.34 14.40L397.20 14.40L397.24 14.11L398.43 13.90L398.43 11.05L396.01 6.35Z"></path></g></svg>