<svg data-v-423bf9ae="" xmlns="http://www.w3.org/2000/svg" viewBox="0 0 490.2254248709315 60" class="font"><!----><!----><!----><g data-v-423bf9ae="" id="edad3e79-7c3b-46f8-94bd-f17750a29957" fill="white" transform="matrix(5.410279456668789,0,0,5.410279456668789,-1.136153567836402,-16.176735388617544)"><path d="M7.84 4.38L7.84 4.38L7.84 4.38Q8.05 4.66 8.14 4.95L8.14 4.95L8.14 4.95Q8.22 5.24 8.36 6.41L8.36 6.41L8.36 6.41Q8.50 7.58 8.65 9.21L8.65 9.21L8.65 9.21Q8.80 10.85 8.90 11.74L8.90 11.74L8.90 11.74Q9.00 12.64 9.20 13.79L9.20 13.79L9.20 13.79Q8.71 13.95 8.02 13.95L8.02 13.95L8.02 13.95Q7.32 13.95 7.04 13.79L7.04 13.79L7.04 13.79Q6.75 12.97 6.61 10.54L6.61 10.54L3.82 10.41L3.82 10.41Q3.19 13.83 1.61 14.03L1.61 14.03L1.61 14.03Q1.54 14.03 1.48 14.03L1.48 14.03L1.48 14.03Q1.00 14.03 0.61 13.74L0.61 13.74L0.61 13.74Q0.21 13.45 0.21 13.04L0.21 13.04L0.21 13.04Q0.78 12.66 1.26 11.98L1.26 11.98L1.26 11.98Q1.74 11.29 2.06 10.51L2.06 10.51L2.06 10.51Q2.38 9.73 2.61 8.85L2.61 8.85L2.61 8.85Q3.04 7.21 3.04 5.79L3.04 5.79L3.04 5.79Q3.04 5.30 2.92 5.07L2.92 5.07L2.92 5.07Q2.80 4.84 2.43 4.79L2.43 4.79L2.43 4.79Q2.32 4.65 2.32 4.30L2.32 4.30L2.32 4.30Q2.32 3.95 2.35 3.86L2.35 3.86L2.35 3.86Q4.26 3.96 7.31 4.00L7.31 4.00L7.31 4.00Q7.62 4.09 7.84 4.38ZM6.54 9.50L6.54 9.50L6.54 9.50Q6.50 8.78 6.46 7.68L6.46 7.68L6.46 7.68Q6.42 6.58 6.41 6.31L6.41 6.31L6.41 6.31Q6.39 6.05 6.36 5.81L6.36 5.81L6.36 5.81Q6.34 5.58 6.31 5.48L6.31 5.48L6.31 5.48Q6.28 5.37 6.22 5.29L6.22 5.29L6.22 5.29Q6.14 5.17 5.81 5.13L5.81 5.13L5.81 5.13Q5.48 5.09 4.27 5.09L4.27 5.09L4.27 5.09Q4.27 5.99 4.17 7.31L4.17 7.31L4.17 7.31Q4.07 8.63 3.98 9.38L3.98 9.38L4.24 9.38L4.24 9.38Q5.41 9.38 6.54 9.50ZM11.03 5.08L11.03 5.08L11.03 5.08Q10.91 4.42 10.16 4.33L10.16 4.33L10.16 4.33Q10.11 3.99 10.11 3.95L10.11 3.95L10.11 3.95Q10.11 3.90 10.12 3.85L10.12 3.85L10.12 3.85Q11.41 3.34 12.74 3.34L12.74 3.34L12.74 3.34Q12.80 3.34 12.87 3.34L12.87 3.34L12.87 3.34Q13.01 3.53 13.06 4.20L13.06 4.20L13.06 4.20Q13.10 4.87 13.10 7.33L13.10 7.33L13.10 7.33Q13.10 9.79 13.03 13.80L13.03 13.80L13.03 13.80Q12.58 13.93 11.95 13.93L11.95 13.93L11.95 13.93Q11.32 13.93 10.97 13.79L10.97 13.79L10.97 13.79Q11.09 12.87 11.09 10.29L11.09 10.29L11.09 10.29Q11.09 7.72 11.03 5.08ZM15.57 3.33L15.57 3.33L15.57 3.33Q15.97 2.99 16.44 2.99L16.44 2.99L16.44 2.99Q16.91 2.99 17.22 3.28L17.22 3.28L17.22 3.28Q17.53 3.57 17.53 4.09L17.53 4.09L17.53 4.09Q17.53 4.62 17.13 4.98L17.13 4.98L17.13 4.98Q16.73 5.34 16.23 5.34L16.23 5.34L16.23 5.34Q15.72 5.34 15.43 5.02L15.43 5.02L15.43 5.02Q15.13 4.71 15.13 4.22L15.13 4.22L15.13 4.22Q15.13 3.73 15.57 3.33ZM15.38 8.33L15.38 8.33L15.38 8.33Q15.38 7.81 15.02 7.71L15.02 7.71L15.02 7.71Q14.79 7.64 14.36 7.60L14.36 7.60L14.36 7.60Q14.31 7.40 14.31 7.29L14.31 7.29L14.31 7.29Q14.31 7.18 14.32 7.12L14.32 7.12L14.32 7.12Q15.31 6.57 16.79 6.57L16.79 6.57L16.79 6.57Q17.03 6.57 17.14 6.58L17.14 6.58L17.14 6.58Q17.34 6.88 17.41 7.75L17.41 7.75L17.41 7.75Q17.47 8.15 17.47 8.95L17.47 8.95L17.47 8.95Q17.47 9.75 17.41 13.82L17.41 13.82L17.41 13.82Q16.65 13.95 16.15 13.95L16.15 13.95L16.15 13.95Q15.65 13.95 15.30 13.82L15.30 13.82L15.30 13.82Q15.42 12.17 15.42 10.87L15.42 10.87L15.42 10.87Q15.42 9.56 15.38 8.33ZM21.53 8.27L21.53 8.27L21.53 10.03L21.53 10.03Q21.53 12.02 21.55 13.16L21.55 13.16L21.55 13.16Q21.89 13.21 22.37 13.21L22.37 13.21L22.37 13.21Q23.26 13.21 23.97 12.48L23.97 12.48L23.97 12.48Q24.74 11.66 24.74 10.04L24.74 10.04L24.74 10.04Q24.74 7.59 23.28 7.59L23.28 7.59L23.28 7.59Q22.89 7.59 22.49 7.75L22.49 7.75L22.49 7.75Q22.09 7.92 21.53 8.27ZM21.57 4.40L21.57 4.40L21.57 4.63L21.57 4.63Q21.57 4.82 21.57 5.19L21.57 5.19L21.57 5.19Q21.56 5.56 21.55 6.15L21.55 6.15L21.55 6.15Q21.55 6.75 21.54 7.28L21.54 7.28L21.54 7.28Q22.53 6.52 23.69 6.52L23.69 6.52L23.69 6.52Q25.27 6.52 26.05 7.39L26.05 7.39L26.05 7.39Q26.83 8.26 26.83 9.86L26.83 9.86L26.83 9.86Q26.83 11.35 26.15 12.27L26.15 12.27L26.15 12.27Q24.83 14.08 22.37 14.08L22.37 14.08L22.37 14.08Q20.64 14.08 19.47 13.73L19.47 13.73L19.47 13.73Q19.58 11.92 19.58 9.09L19.58 9.09L19.58 9.09Q19.58 6.26 19.54 4.97L19.54 4.97L19.54 4.97Q19.52 4.63 19.28 4.43L19.28 4.43L19.28 4.43Q19.05 4.23 18.68 4.20L18.68 4.20L18.68 4.20Q18.63 3.86 18.63 3.82L18.63 3.82L18.63 3.82Q18.63 3.77 18.64 3.72L18.64 3.72L18.64 3.72Q19.93 3.22 21.23 3.22L21.23 3.22L21.23 3.22Q21.29 3.22 21.35 3.22L21.35 3.22L21.35 3.22Q21.51 3.42 21.57 4.40ZM34.77 9.94L34.77 9.94L34.73 12.24L34.73 12.24Q34.73 12.27 34.73 12.30L34.73 12.30L34.73 12.30Q34.73 12.68 35.08 12.68L35.08 12.68L35.08 12.68Q35.36 12.68 35.66 12.50L35.66 12.50L35.66 12.50Q35.76 12.58 35.84 12.73L35.84 12.73L35.84 12.73Q35.93 12.88 35.94 12.96L35.94 12.96L35.94 12.96Q35.10 14.04 34.18 14.04L34.18 14.04L34.18 14.04Q33.27 14.04 32.91 13.15L32.91 13.15L32.91 13.15Q32.28 13.58 31.63 13.81L31.63 13.81L31.63 13.81Q30.97 14.04 30.51 14.04L30.51 14.04L30.51 14.04Q30.04 14.04 29.64 13.94L29.64 13.94L29.64 13.94Q29.24 13.84 28.90 13.61L28.90 13.61L28.90 13.61Q28.16 13.13 28.16 12.03L28.16 12.03L28.16 12.03Q28.16 11.44 28.48 11.00L28.48 11.00L28.48 11.00Q28.81 10.56 29.37 10.31L29.37 10.31L29.37 10.31Q30.44 9.82 31.93 9.78L31.93 9.78L32.72 9.75L32.72 9.75Q32.77 9.20 32.77 8.88L32.77 8.88L32.77 8.88Q32.77 8.16 32.49 7.79L32.49 7.79L32.49 7.79Q32.22 7.42 31.47 7.42L31.47 7.42L31.47 7.42Q31.01 7.42 30.77 7.73L30.77 7.73L30.77 7.73Q30.52 8.05 30.52 8.66L30.52 8.66L30.52 8.66Q30.52 8.74 30.28 8.86L30.28 8.86L30.28 8.86Q29.89 9.04 29.51 9.04L29.51 9.04L29.51 9.04Q29.12 9.04 28.89 8.83L28.89 8.83L28.89 8.83Q28.66 8.61 28.66 8.21L28.66 8.21L28.66 8.21Q28.66 7.81 28.95 7.46L28.95 7.46L28.95 7.46Q29.24 7.12 29.72 6.92L29.72 6.92L29.72 6.92Q30.67 6.55 31.88 6.55L31.88 6.55L31.88 6.55Q33.15 6.55 33.74 6.95L33.74 6.95L33.74 6.95Q34.28 7.31 34.50 7.97L34.50 7.97L34.50 7.97Q34.77 8.74 34.77 9.94ZM32.72 12.43L32.72 12.43L32.72 12.43Q32.63 11.93 32.63 11.56L32.63 11.56L32.63 11.56Q32.63 11.20 32.66 10.54L32.66 10.54L31.71 10.58L31.71 10.58Q30.97 10.58 30.58 10.94L30.58 10.94L30.58 10.94Q30.18 11.29 30.18 11.83L30.18 11.83L30.18 11.83Q30.18 12.36 30.41 12.59L30.41 12.59L30.41 12.59Q30.65 12.82 31.35 12.82L31.35 12.82L31.35 12.82Q32.06 12.82 32.72 12.43ZM41.04 12.43L41.04 12.43L41.04 12.43Q41.29 12.65 41.32 12.89L41.32 12.89L41.32 12.89Q40.42 14.04 39.24 14.04L39.24 14.04L39.24 14.04Q38.47 14.04 38.14 13.43L38.14 13.43L38.14 13.43Q37.87 12.89 37.81 11.57L37.81 11.57L37.81 11.57Q37.75 9.52 37.75 7.75L37.75 7.75L37.75 7.75Q37.06 7.72 36.90 7.68L36.90 7.68L36.90 7.68Q36.87 7.63 36.87 7.28L36.87 7.28L36.87 7.28Q36.87 6.93 36.90 6.90L36.90 6.90L37.77 6.82L37.77 6.82Q37.77 6.67 37.81 5.44L37.81 5.44L37.81 5.44Q38.15 5.09 38.81 4.90L38.81 4.90L38.81 4.90Q39.47 4.72 39.98 4.72L39.98 4.72L39.98 4.72Q39.89 5.58 39.83 6.82L39.83 6.82L39.83 6.82Q40.05 6.82 41.19 6.90L41.19 6.90L41.19 6.90Q41.22 7.01 41.22 7.34L41.22 7.34L41.22 7.34Q41.22 7.67 41.19 7.74L41.19 7.74L41.19 7.74Q40.56 7.82 39.79 7.84L39.79 7.84L39.79 7.84Q39.76 8.65 39.76 9.90L39.76 9.90L39.76 9.90Q39.76 11.14 39.81 12.24L39.81 12.24L39.81 12.24Q39.83 12.66 40.24 12.66L40.24 12.66L40.24 12.66Q40.65 12.66 41.04 12.43ZM49.06 9.94L49.06 9.94L49.02 12.24L49.02 12.24Q49.02 12.27 49.02 12.30L49.02 12.30L49.02 12.30Q49.02 12.68 49.38 12.68L49.38 12.68L49.38 12.68Q49.65 12.68 49.96 12.50L49.96 12.50L49.96 12.50Q50.05 12.58 50.14 12.73L50.14 12.73L50.14 12.73Q50.22 12.88 50.24 12.96L50.24 12.96L50.24 12.96Q49.39 14.04 48.48 14.04L48.48 14.04L48.48 14.04Q47.56 14.04 47.20 13.15L47.20 13.15L47.20 13.15Q46.57 13.58 45.92 13.81L45.92 13.81L45.92 13.81Q45.27 14.04 44.80 14.04L44.80 14.04L44.80 14.04Q44.33 14.04 43.93 13.94L43.93 13.94L43.93 13.94Q43.53 13.84 43.19 13.61L43.19 13.61L43.19 13.61Q42.45 13.13 42.45 12.03L42.45 12.03L42.45 12.03Q42.45 11.44 42.78 11.00L42.78 11.00L42.78 11.00Q43.10 10.56 43.66 10.31L43.66 10.31L43.66 10.31Q44.73 9.82 46.22 9.78L46.22 9.78L47.02 9.75L47.02 9.75Q47.07 9.20 47.07 8.88L47.07 8.88L47.07 8.88Q47.07 8.16 46.79 7.79L46.79 7.79L46.79 7.79Q46.51 7.42 45.76 7.42L45.76 7.42L45.76 7.42Q45.31 7.42 45.06 7.73L45.06 7.73L45.06 7.73Q44.81 8.05 44.81 8.66L44.81 8.66L44.81 8.66Q44.81 8.74 44.58 8.86L44.58 8.86L44.58 8.86Q44.19 9.04 43.80 9.04L43.80 9.04L43.80 9.04Q43.42 9.04 43.19 8.83L43.19 8.83L43.19 8.83Q42.96 8.61 42.96 8.21L42.96 8.21L42.96 8.21Q42.96 7.81 43.24 7.46L43.24 7.46L43.24 7.46Q43.53 7.12 44.01 6.92L44.01 6.92L44.01 6.92Q44.96 6.55 46.18 6.55L46.18 6.55L46.18 6.55Q47.45 6.55 48.04 6.95L48.04 6.95L48.04 6.95Q48.57 7.31 48.79 7.97L48.79 7.97L48.79 7.97Q49.06 8.74 49.06 9.94ZM47.02 12.43L47.02 12.43L47.02 12.43Q46.93 11.93 46.93 11.56L46.93 11.56L46.93 11.56Q46.93 11.20 46.95 10.54L46.95 10.54L46.00 10.58L46.00 10.58Q45.27 10.58 44.87 10.94L44.87 10.94L44.87 10.94Q44.47 11.29 44.47 11.83L44.47 11.83L44.47 11.83Q44.47 12.36 44.71 12.59L44.71 12.59L44.71 12.59Q44.94 12.82 45.65 12.82L45.65 12.82L45.65 12.82Q46.35 12.82 47.02 12.43ZM63.72 12.63L63.72 12.63L63.72 12.63Q62.36 14.04 60.25 14.04L60.25 14.04L60.25 14.04Q58.26 14.04 56.98 12.83L56.98 12.83L56.98 12.83Q56.35 12.22 55.99 11.23L55.99 11.23L55.99 11.23Q55.63 10.25 55.63 8.84L55.63 8.84L55.63 8.84Q55.63 7.42 56.29 6.23L56.29 6.23L56.29 6.23Q56.96 5.03 58.16 4.38L58.16 4.38L58.16 4.38Q59.36 3.72 60.83 3.72L60.83 3.72L60.83 3.72Q62.30 3.72 63.50 4.28L63.50 4.28L63.50 4.28Q63.62 4.43 63.62 4.66L63.62 4.66L63.62 4.66Q63.62 4.89 63.62 4.96L63.62 4.96L63.53 6.47L63.53 6.47Q63.15 6.72 62.80 6.72L62.80 6.72L62.80 6.72Q62.45 6.72 62.24 6.61L62.24 6.61L62.24 6.61Q62.04 6.51 61.94 6.32L61.94 6.32L61.94 6.32Q61.78 5.99 61.78 5.66L61.78 5.66L61.78 5.66Q61.78 5.33 61.79 5.07L61.79 5.07L61.79 5.07Q61.41 4.79 60.77 4.79L60.77 4.79L60.77 4.79Q60.14 4.79 59.76 4.91L59.76 4.91L59.76 4.91Q59.37 5.04 59.03 5.33L59.03 5.33L59.03 5.33Q58.69 5.61 58.45 6.04L58.45 6.04L58.45 6.04Q57.93 6.98 57.93 8.59L57.93 8.59L57.93 8.59Q57.93 10.63 58.82 11.72L58.82 11.72L58.82 11.72Q59.71 12.81 61.13 12.81L61.13 12.81L61.13 12.81Q62.17 12.81 63.18 11.94L63.18 11.94L63.18 11.94Q63.57 12.13 63.72 12.63ZM73.06 10.08L73.06 10.08L73.06 10.08Q73.06 10.98 72.74 11.76L72.74 11.76L72.74 11.76Q72.42 12.55 71.83 13.05L71.83 13.05L71.83 13.05Q70.65 14.05 68.71 14.05L68.71 14.05L68.71 14.05Q67.74 14.05 66.92 13.60L66.92 13.60L66.92 13.60Q66.10 13.14 65.61 12.31L65.61 12.31L65.61 12.31Q65.13 11.49 65.13 10.35L65.13 10.35L65.13 10.35Q65.13 9.20 65.71 8.29L65.71 8.29L65.71 8.29Q66.87 6.48 69.59 6.48L69.59 6.48L69.59 6.48Q70.96 6.48 71.99 7.42L71.99 7.42L71.99 7.42Q73.06 8.39 73.06 10.08ZM67.14 10.28L67.14 10.28L67.14 10.28Q67.14 11.45 67.82 12.33L67.82 12.33L67.82 12.33Q68.50 13.20 69.41 13.20L69.41 13.20L69.41 13.20Q71.09 13.20 71.09 10.46L71.09 10.46L71.09 10.46Q71.09 9.10 70.46 8.25L70.46 8.25L70.46 8.25Q69.84 7.40 68.88 7.40L68.88 7.40L68.88 7.40Q68.39 7.40 68.04 7.65L68.04 7.65L68.04 7.65Q67.68 7.90 67.50 8.31L67.50 8.31L67.50 8.31Q67.14 9.11 67.14 10.28ZM81.76 4.59L81.76 4.59L81.70 8.80L81.70 8.80Q81.70 10.26 81.74 12.35L81.74 12.35L81.74 12.35Q81.74 12.80 82.11 12.84L82.11 12.84L82.11 12.84Q82.20 12.84 82.37 12.84L82.37 12.84L82.37 12.84Q82.54 12.84 82.63 12.85L82.63 12.85L82.63 12.85Q82.71 12.98 82.71 13.13L82.71 13.13L82.71 13.13Q82.71 13.27 82.69 13.37L82.69 13.37L82.69 13.37Q81.50 14.04 80.68 14.04L80.68 14.04L80.68 14.04Q80.12 13.95 79.78 13.16L79.78 13.16L79.78 13.16Q79.29 13.62 78.82 13.83L78.82 13.83L78.82 13.83Q78.35 14.04 77.79 14.04L77.79 14.04L77.79 14.04Q77.24 14.04 76.78 13.93L76.78 13.93L76.78 13.93Q76.33 13.82 75.89 13.54L75.89 13.54L75.89 13.54Q75.44 13.27 75.11 12.86L75.11 12.86L75.11 12.86Q74.38 11.94 74.38 10.37L74.38 10.37L74.38 10.37Q74.38 9.46 74.72 8.73L74.72 8.73L74.72 8.73Q75.06 8.00 75.63 7.54L75.63 7.54L75.63 7.54Q76.81 6.60 78.46 6.60L78.46 6.60L78.46 6.60Q78.93 6.60 79.76 6.73L79.76 6.73L79.72 4.93L79.72 4.93Q79.70 4.59 79.46 4.39L79.46 4.39L79.46 4.39Q79.23 4.19 78.87 4.16L78.87 4.16L78.87 4.16Q78.82 3.82 78.82 3.78L78.82 3.78L78.82 3.78Q78.82 3.73 78.83 3.68L78.83 3.68L78.83 3.68Q80.12 3.18 81.40 3.18L81.40 3.18L81.40 3.18Q81.46 3.18 81.53 3.18L81.53 3.18L81.53 3.18Q81.62 3.31 81.69 3.72L81.69 3.72L81.69 3.72Q81.76 4.13 81.76 4.59ZM78.80 7.60L78.80 7.60L78.80 7.60Q77.79 7.60 77.14 8.24L77.14 8.24L77.14 8.24Q76.49 8.89 76.49 10.19L76.49 10.19L76.49 10.19Q76.49 11.09 76.70 11.65L76.70 11.65L76.70 11.65Q76.91 12.22 77.16 12.48L77.16 12.48L77.16 12.48Q77.66 12.99 78.21 12.99L78.21 12.99L78.21 12.99Q78.76 12.99 79.04 12.82L79.04 12.82L79.04 12.82Q79.33 12.66 79.76 12.17L79.76 12.17L79.76 12.17Q79.81 11.27 79.81 9.98L79.81 9.98L79.81 9.98Q79.81 8.68 79.79 7.68L79.79 7.68L79.79 7.68Q79.28 7.60 78.80 7.60ZM85.98 10.85L85.98 10.85Q86.18 11.86 86.85 12.48L86.85 12.48L86.85 12.48Q87.52 13.10 88.42 13.10L88.42 13.10L88.42 13.10Q89.31 13.10 90.22 12.33L90.22 12.33L90.22 12.33Q90.56 12.56 90.64 12.87L90.64 12.87L90.64 12.87Q90.01 13.60 88.78 13.91L88.78 13.91L88.78 13.91Q88.28 14.04 87.63 14.04L87.63 14.04L87.63 14.04Q86.97 14.04 86.28 13.81L86.28 13.81L86.28 13.81Q85.58 13.57 85.03 13.12L85.03 13.12L85.03 13.12Q84.48 12.67 84.16 11.93L84.16 11.93L84.16 11.93Q83.84 11.20 83.84 10.30L83.84 10.30L83.84 10.30Q83.84 9.41 84.16 8.68L84.16 8.68L84.16 8.68Q84.49 7.95 85.03 7.49L85.03 7.49L85.03 7.49Q86.16 6.51 87.62 6.51L87.62 6.51L87.62 6.51Q88.89 6.51 89.83 7.20L89.83 7.20L89.83 7.20Q90.28 7.54 90.55 8.08L90.55 8.08L90.55 8.08Q90.82 8.63 90.82 9.31L90.82 9.31L90.82 9.31Q90.82 10.48 90.05 10.54L90.05 10.54L85.98 10.85ZM88.98 9.11L88.98 9.11Q88.98 8.29 88.53 7.83L88.53 7.83L88.53 7.83Q88.08 7.38 87.35 7.38L87.35 7.38L87.35 7.38Q86.62 7.38 86.24 8.06L86.24 8.06L86.24 8.06Q85.87 8.75 85.87 9.97L85.87 9.97L85.87 9.97Q87.57 9.78 88.94 9.58L88.94 9.58L88.94 9.58Q88.98 9.33 88.98 9.11L88.98 9.11Z"></path></g><!----><!----></svg>